<svg width="36" height="36" viewBox="0 0 36 36" fill="none" xmlns="http://www.w3.org/2000/svg">
<g id="Group 24">
<rect id="Rectangle 29" width="36" height="36" rx="8" fill="#E0EAC5"/>
<g id="Group 8">
<g id="library_books">
<path id="library_books_2" d="M15.3495 20.4395H19.8876V19.1358H15.3495V20.4395ZM15.3495 16.5282H24.4257V15.2245H15.3495V16.5282ZM15.3495 12.6169H24.4257V11.3132H15.3495V12.6169ZM10.7863 25.0027V6.75H29.039V25.0027H10.7863ZM6.875 28.914V11.4636H10.7863V25.0027H24.3254V28.914H6.875Z" fill="#8AAE26"/>
</g>
<g id="library_books_3">
<path id="library_books_4" d="M15.3495 20.4395H19.8876V19.1358H15.3495V20.4395ZM15.3495 16.5282H24.4257V15.2245H15.3495V16.5282ZM15.3495 12.6169H24.4257V11.3132H15.3495V12.6169ZM6.875 28.914V11.4636H10.7863V25.0027H24.3254V28.914H6.875Z" fill="#417344"/>
</g>
<g id="library_books_5">
<path id="library_books_6" d="M15.3495 20.4395H19.8876V19.1358H15.3495V20.4395ZM15.3495 16.5282H24.4257V15.2245H15.3495V16.5282ZM15.3495 12.6169H24.4257V11.3132H15.3495V12.6169Z" fill="white"/>
</g>
</g>
</g>
</svg>
